<?xml version="1.0" encoding="utf-8"?>
<!-- Generator: Adobe Illustrator 26.3.1, SVG Export Plug-In . SVG Version: 6.00 Build 0)  -->
<svg version="1.1" id="Layer_1" xmlns="http://www.w3.org/2000/svg" xmlns:xlink="http://www.w3.org/1999/xlink" x="0px" y="0px"
	 viewBox="0 0 48 48" style="enable-background:new 0 0 48 48;" xml:space="preserve">
<style type="text/css">
	.st0{fill:#FF9900;}
</style>
<path class="st0" d="M38.4,42L25.9,29.5l2.9-2.9l12.5,12.6L38.4,42z M9.4,42l-2.9-2.8L21,24.6l-5.4-5.4l-1.1,1.2l-2.2-2.2v4.3
	l-1.2,1.2L5,17.6l1.2-1.2h4.3L8.1,14l6.5-6.6c0.6-0.6,1.2-0.9,1.9-1.1C17.2,6.1,17.9,6,18.7,6c0.8,0,1.5,0.1,2.2,0.4
	c0.7,0.3,1.3,0.7,1.9,1.3l-5.4,5.4l2.4,2.4l-1.2,1.2l5.2,5.2l6.1-6.1c-0.3-0.4-0.5-0.9-0.6-1.5c-0.1-0.6-0.2-1.2-0.2-1.8
	c0-1.8,0.6-3.3,1.9-4.6s2.8-1.9,4.6-1.9c0.5,0,0.9,0.1,1.3,0.2c0.3,0.1,0.6,0.2,0.9,0.4l-4.3,4.3l3.8,3.8l4.3-4.3
	c0.2,0.3,0.3,0.6,0.4,1s0.2,0.8,0.2,1.3c0,1.8-0.6,3.3-1.9,4.6S37.3,19,35.5,19c-0.6,0-1.1,0-1.5-0.1s-0.8-0.2-1.2-0.4L9.4,42z"/>
</svg>
