<?xml version="1.0" encoding="utf-8"?>
<!-- Generator: Adobe Illustrator 26.3.1, SVG Export Plug-In . SVG Version: 6.00 Build 0)  -->
<svg version="1.1" id="Layer_1" xmlns="http://www.w3.org/2000/svg" xmlns:xlink="http://www.w3.org/1999/xlink" x="0px" y="0px"
	 viewBox="0 0 48 48" style="enable-background:new 0 0 48 48;" xml:space="preserve">
<style type="text/css">
	.st0{fill:#FFFFFF;}
</style>
<path class="st0" d="M4,40v-4.7c0-1.1,0.3-2.2,0.8-3.1c0.6-0.9,1.4-1.7,2.6-2.2c2.4-1.1,4.6-1.8,6.6-2.3c2-0.5,4-0.7,6-0.7
	c1,0,2,0.1,3.1,0.2c1.1,0.1,2.2,0.3,3.3,0.6L24,30.3c-0.7-0.1-1.3-0.1-2-0.2C21.3,30,20.7,30,20,30c-1.9,0-3.7,0.2-5.3,0.5
	c-1.6,0.4-3.6,1.1-6.1,2.2c-0.6,0.3-1,0.6-1.2,1.1S7,34.8,7,35.3V37h16l3,3H4z M31.3,40.8l-7-7l2.1-2.1l5,4.9L41.9,26L44,28
	L31.3,40.8z M20,23.9c-2.2,0-4-0.7-5.4-2.1s-2.1-3.2-2.1-5.4s0.7-4,2.1-5.4s3.2-2.1,5.4-2.1s4,0.7,5.4,2.1c1.4,1.4,2.1,3.2,2.1,5.4
	s-0.7,4-2.1,5.4C24,23.2,22.2,23.9,20,23.9z M23,37C23,37,23,37,23,37C23,37,23,37,23,37C23,37,23,37,23,37C23,37,23,37,23,37
	C23,37,23,37,23,37C23,37,23,37,23,37z M20,20.9c1.3,0,2.4-0.4,3.2-1.3c0.8-0.9,1.3-1.9,1.3-3.2s-0.4-2.4-1.3-3.2
	c-0.9-0.9-1.9-1.3-3.2-1.3c-1.3,0-2.4,0.4-3.2,1.3c-0.8,0.9-1.3,1.9-1.3,3.2s0.4,2.4,1.3,3.2C17.6,20.5,18.7,20.9,20,20.9z M20,16.4
	L20,16.4L20,16.4L20,16.4L20,16.4L20,16.4L20,16.4L20,16.4L20,16.4z"/>
</svg>
