<?xml version="1.0" encoding="utf-8"?>
<!-- Generator: Adobe Illustrator 26.3.1, SVG Export Plug-In . SVG Version: 6.00 Build 0)  -->
<svg version="1.1" id="Layer_1" xmlns="http://www.w3.org/2000/svg" xmlns:xlink="http://www.w3.org/1999/xlink" x="0px" y="0px"
	 viewBox="0 0 48 48" style="enable-background:new 0 0 48 48;" xml:space="preserve">
<style type="text/css">
	.st0{fill:#FFFFFF;}
</style>
<path class="st0" d="M19.5,27c0-4.2,1.4-7.8,4.4-10.6S30.3,12,34.5,12v3c-3.4,0-6.2,1.2-8.5,3.5s-3.5,5.2-3.5,8.5H19.5z M25.5,27
	c0-2.5,0.9-4.6,2.6-6.4S32,18,34.5,18v3c-1.7,0-3.1,0.6-4.3,1.8s-1.8,2.6-1.8,4.3H25.5z M9.5,11.5c-1,0-1.9-0.4-2.7-1.1
	C6.1,9.7,5.8,8.8,5.8,7.8s0.4-1.9,1.1-2.7S8.5,4,9.5,4s1.9,0.4,2.6,1.1c0.7,0.7,1.1,1.6,1.1,2.7s-0.4,1.9-1.1,2.6
	C11.4,11.1,10.5,11.5,9.5,11.5z M4,21.3v-4.5c0-0.7,0.3-1.3,0.8-1.8c0.5-0.5,1.1-0.7,1.8-0.7h6c1.6,0,3-0.5,4.1-1.4
	c1.1-0.9,1.9-2.1,2.2-3.6h3.1c-0.3,1.8-1,3.4-2.3,4.8s-2.8,2.3-4.6,2.9v4.4H4z M38.5,34.3c-1,0-1.9-0.4-2.7-1.1s-1.1-1.6-1.1-2.7
	s0.4-1.9,1.1-2.6s1.6-1.1,2.7-1.1s1.9,0.4,2.7,1.1s1.1,1.6,1.1,2.6s-0.4,1.9-1.1,2.7S39.5,34.3,38.5,34.3z M33,44v-4.3
	c-1.8-0.6-3.3-1.5-4.6-2.9c-1.3-1.4-2-3-2.3-4.8h3.1c0.3,1.5,1.1,2.7,2.2,3.6c1.1,0.9,2.5,1.4,4.1,1.4h6c0.7,0,1.3,0.2,1.8,0.7
	c0.5,0.5,0.7,1.1,0.7,1.8V44H33z"/>
</svg>
