<?xml version="1.0" encoding="utf-8"?>
<!-- Generator: Adobe Illustrator 26.3.1, SVG Export Plug-In . SVG Version: 6.00 Build 0)  -->
<svg version="1.1" id="Layer_1" xmlns="http://www.w3.org/2000/svg" xmlns:xlink="http://www.w3.org/1999/xlink" x="0px" y="0px"
	 viewBox="0 0 48 48" style="enable-background:new 0 0 48 48;" xml:space="preserve">
<style type="text/css">
	.st0{fill:#FFFFFF;}
</style>
<path class="st0" d="M14,27v-3h20v3H14z M14,36v-3h14v3H14z M9,44c-0.8,0-1.5-0.3-2.1-0.9C6.3,42.5,6,41.8,6,41V10
	c0-0.8,0.3-1.5,0.9-2.1S8.2,7,9,7h3.3V4h3.3v3h17V4h3.3v3H39c0.8,0,1.5,0.3,2.1,0.9C41.7,8.5,42,9.2,42,10v31c0,0.8-0.3,1.5-0.9,2.1
	C40.5,43.7,39.8,44,39,44H9z M9,41h30l0,0l0,0V19.5H9V41L9,41L9,41z M9,16.5h30V10l0,0l0,0H9l0,0l0,0V16.5z M9,16.5V10l0,0l0,0l0,0
	l0,0V16.5z"/>
</svg>
